General
Complete name                    : Otnemem - Chronological Memento (720p).mpeg
Format                           : MPEG-PS
File size                        : 8.84 GiB
Duration                         : 1h 50mn
Overall bit rate                 : 11.4 Mbps

Video
ID                               : 224 (0xE0)
Format                           : MPEG Video
Format version                   : Version 2
Format profile                   : High@High 1440
Format settings, BVOP            : No
Format settings, Matrix          : Default
Format settings, GOP             : M=1, N=3
Duration                         : 1h 50mn
Bit rate mode                    : Constant
Bit rate                         : 11.0 Mbps
Width                            : 1 280 pixels
Height                           : 720 pixels
Display aspect ratio             : 16:9
Frame rate                       : 23.976 fps
Standard                         : NTSC
Color space                      : YUV
Chroma subsampling               : 4:2:0
Bit depth                        : 8 bits
Scan type                        : Progressive
Bits/(Pixel*Frame)               : 0.500
Stream size                      : 8.37 GiB (95%)

Audio
ID                               : 192 (0xC0)
Format                           : MPEG Audio
Format version                   : Version 1
Format profile                   : Layer 2
Duration                         : 1h 50mn
Bit rate mode                    : Constant
Bit rate                         : 384 Kbps
Channel(s)                       : 2 channels
Sampling rate                    : 48.0 KHz
Stream size                      : 304 MiB (3%)



 - just to let everyone know, the real resolution is 1280*544, there are black bars at the top and bottom

 - this is not intended for sale, just a neat edit of the movie

 - all rights to this movie belong to whomever has rights for Memento(2000)
